<svg width="50" height="50" viewBox="0 0 50 50" fill="none" xmlns="http://www.w3.org/2000/svg">
<circle cx="25" cy="25" r="25" fill="url(#paint0_linear_17_4452)"/>
<path fill-rule="evenodd" clip-rule="evenodd" d="M10 37.6688C10.7017 35.0771 11.477 32.4457 12.3258 29.7747C13.1747 27.1036 14.2272 23.912 15.4835 20.1998C16.7511 16.4762 17.6169 13.9014 18.0809 12.4753C18.2167 12.249 18.3073 12.1132 18.3526 12.0679H21.2047C21.8724 12.0679 22.8571 12.0566 24.1586 12.034C25.4602 12.0113 26.4448 12 27.1126 12H29.9647C30.1344 12 30.2759 12.0057 30.3891 12.017C30.5022 12.017 30.6381 12.0283 30.7965 12.0509C30.955 12.0736 31.0795 12.1075 31.17 12.1528C31.2719 12.1981 31.3567 12.266 31.4247 12.3565C31.4926 12.4471 31.5265 12.5546 31.5265 12.6791L39.3528 37.4821C39.3528 37.7085 39.2679 37.8612 39.0981 37.9405C38.9397 38.031 38.6341 38.0763 38.1814 38.0763H36.6195C36.1668 38.0763 35.4934 38.0819 34.5993 38.0933C33.7052 38.1046 33.0318 38.1102 32.5791 38.1102C32.4433 38.1102 32.166 38.1159 31.7472 38.1272C31.3398 38.1498 30.9946 38.1555 30.7116 38.1442C30.4287 38.1442 30.1118 38.1272 29.7609 38.0933C29.4214 38.0706 29.1441 38.0084 28.9291 37.9065C28.7253 37.816 28.5952 37.6915 28.5386 37.533V36.4126C28.4254 35.8467 28.2274 35.326 27.9444 34.8507C27.6615 34.3753 27.3616 34.1377 27.0447 34.1377H21.2047L20.3219 37.7367C20.1974 38.0084 19.5636 38.1442 18.4205 38.1442H17.0623C16.5757 38.1442 15.8513 38.1612 14.8893 38.1951C13.9273 38.2291 13.2029 38.246 12.7163 38.246H12.2409C12.0598 38.246 11.7712 38.2517 11.3751 38.263C10.9903 38.2743 10.6904 38.28 10.4753 38.28C10.3848 38.1895 10.2264 37.9857 10 37.6688ZM21.7819 27.364L22.2572 28.1619H23.3777C24.2831 28.1619 25.1093 28.1109 25.8563 28.0091C26.6146 27.8959 26.9937 27.7205 26.9937 27.4828L24.8037 17.7042C24.6 17.7042 24.3227 18.089 23.9719 18.8586C23.6323 19.6282 23.355 20.4997 23.14 21.473L21.7819 27.364Z" fill="#F5F5F5"/>
<defs>
<linearGradient id="paint0_linear_17_4452" x1="50" y1="25" x2="-8.12113e-07" y2="25" gradientUnits="userSpaceOnUse">
<stop stop-color="#119898"/>
<stop offset="1" stop-color="#119822"/>
</linearGradient>
</defs>
</svg>
